<svg xmlns="http://www.w3.org/2000/svg" viewBox="0 0 1600 420" preserveAspectRatio="none">
  <defs>
    <linearGradient id="sky" x1="0" y1="0" x2="0" y2="1">
      <stop offset="0" stop-color="#ffd6dc"/><stop offset="0.22" stop-color="#c9e6f7"/><stop offset="0.55" stop-color="#72d5ef"/><stop offset="1" stop-color="#4ea9d9"/>
    </linearGradient>
    <radialGradient id="sun" cx="50%" cy="10%" r="45%"><stop offset="0" stop-color="#fff7ce" stop-opacity="0.95"/><stop offset="0.45" stop-color="#fff0b4" stop-opacity="0.35"/><stop offset="1" stop-color="#ffffff" stop-opacity="0"/></radialGradient>
    <linearGradient id="ground" x1="0" y1="0" x2="0" y2="1"><stop offset="0" stop-color="#2a2f55"/><stop offset="1" stop-color="#111528"/></linearGradient>
  </defs>
  <rect width="1600" height="420" fill="url(#sky)"/><rect width="1600" height="420" fill="url(#sun)"/>
  <g opacity="0.62" fill="#6f7fb1">
    <rect x="0" y="190" width="92" height="110"/><rect x="105" y="165" width="68" height="135"/><rect x="186" y="205" width="86" height="95"/><rect x="288" y="145" width="102" height="155"/><rect x="405" y="188" width="74" height="112"/><rect x="492" y="132" width="90" height="168"/><rect x="598" y="180" width="116" height="120"/><rect x="728" y="152" width="74" height="148"/><rect x="818" y="198" width="98" height="102"/><rect x="932" y="142" width="84" height="158"/><rect x="1030" y="188" width="108" height="112"/><rect x="1154" y="158" width="76" height="142"/><rect x="1246" y="204" width="96" height="96"/><rect x="1356" y="148" width="92" height="152"/><rect x="1462" y="182" width="138" height="118"/>
  </g>
  <g fill="#394d80">
    <rect x="0" y="235" width="120" height="105"/><rect x="134" y="205" width="74" height="135"/><rect x="224" y="242" width="94" height="98"/><rect x="334" y="188" width="86" height="152"/><rect x="438" y="220" width="120" height="120"/><rect x="574" y="180" width="76" height="160"/><rect x="666" y="236" width="108" height="104"/><rect x="790" y="198" width="96" height="142"/><rect x="900" y="226" width="74" height="114"/><rect x="990" y="176" width="104" height="164"/><rect x="1110" y="218" width="86" height="122"/><rect x="1212" y="190" width="118" height="150"/><rect x="1346" y="230" width="82" height="110"/><rect x="1442" y="184" width="158" height="156"/>
  </g>
  <rect y="340" width="1600" height="80" fill="url(#ground)"/><rect y="338" width="1600" height="4" fill="#8edfff" opacity="0.6"/>
</svg>
